<?xml version="1.0" encoding="UTF-8"?>
<svg viewBox="0 0 60 60" version="1.1" xmlns="http://www.w3.org/2000/svg" xmlns:xlink="http://www.w3.org/1999/xlink">
   <path d="M49.0288496,19.3540702 L45.342779,12.8039826 L52.4840796,12.8060982 C52.6748656,12.8060982 52.8972736,12.9330379 53.0016262,13.1044065 C53.1154654,13.2916425 53.695202,14.2479215 54.3919399,15.3967256 C55.2257066,16.7719055 56.2228535,18.4157743 56.7931034,19.3540702 L49.0288496,19.3540702 Z M35.8203421,59.0237786 C35.6474752,59.333723 35.4229591,59.333723 35.3502285,59.333723 L32.4325724,59.333723 C30.8883649,59.3326651 29.1069926,59.3316073 28.0466016,59.3316073 L39.3936276,38.9546149 C39.5823055,38.6161091 39.5780892,38.2035551 39.3820329,37.8692806 C39.1859765,37.5350061 38.829702,37.3297869 38.4439137,37.3297869 L38.4428596,37.3297869 L19.1039014,37.3551749 L15.2586668,30.6950729 L43.4264861,30.6950729 C43.4285942,30.6950729 43.4307023,30.6940151 43.4338645,30.6940151 C43.4370267,30.6940151 43.4391349,30.6950729 43.441243,30.6950729 C43.457054,30.6950729 43.4718109,30.6897838 43.4876219,30.6887259 C43.5508659,30.6844946 43.6141099,30.6781476 43.6741917,30.663338 C43.7205706,30.6527597 43.7658955,30.6379501 43.8112203,30.6210248 C43.8354639,30.6115043 43.8586533,30.6019838 43.8818428,30.5914055 C44.0926561,30.4972586 44.2792259,30.3428153 44.3983354,30.1238443 L49.0414983,21.5374327 L56.70667,21.5374327 L35.8203421,59.0237786 Z M26.1566604,58.2494465 C25.9100088,57.8432395 25.5895726,57.315382 25.2406766,56.74098 C24.0675006,54.804092 22.5644017,52.3245369 22.394697,52.0526744 C22.3377774,51.9606431 22.3114258,51.736383 22.4305353,51.5227012 C22.7024844,51.0339834 27.8378965,41.7811385 29.0890734,39.5258434 L36.5877026,39.516323 L26.1566604,58.2494465 Z M13.3687255,45.4972976 L9.64154635,38.8731619 L13.3982394,31.8290674 L17.1665271,38.3548249 C15.9954593,40.5604019 14.1677079,44.0004672 13.3687255,45.4972976 Z M8.36612587,46.5286826 C6.46880616,46.5286826 4.58202711,46.5276247 4.30480762,46.5276247 L4.30375355,46.5276247 C4.11823785,46.5276247 3.89372168,46.3975116 3.79147723,46.2303743 L2.57824668,44.2300165 C1.71391214,42.8040607 0.611358575,40.9856498 0,39.9796528 L7.7642539,39.9796528 L11.4492704,46.5297404 C10.6450177,46.5297404 9.50662584,46.5286826 8.36612587,46.5286826 Z M20.9727613,0.311002221 C21.1456282,0 21.3690903,0 21.4418209,0 L28.7770697,0.00105783068 L17.3994758,20.3780503 C17.3899892,20.3949756 17.3847189,20.4129587 17.3762864,20.4309418 C17.3594213,20.4647924 17.3446644,20.4997008 17.3309615,20.535667 C17.3193668,20.5705754 17.3088261,20.604426 17.2993395,20.6393344 C17.290907,20.6721272 17.2835285,20.7049199 17.2782582,20.7377127 C17.2719338,20.7789681 17.2677175,20.8191657 17.2666635,20.8593632 C17.2656094,20.8773463 17.2613931,20.8942716 17.2613931,20.9133126 C17.2613931,20.9270644 17.2645553,20.9397584 17.2656094,20.9535102 C17.2666635,20.9937077 17.2708797,21.0328475 17.2772041,21.0719872 C17.2814204,21.1047799 17.2866907,21.1375727 17.2951233,21.1703654 C17.3035558,21.2052739 17.3151505,21.2380666 17.3267453,21.2719172 C17.33834,21.3047099 17.3499347,21.3385605 17.3646917,21.3702954 C17.3794486,21.4020304 17.3963136,21.4316496 17.4142328,21.4623267 C17.4321519,21.491946 17.449017,21.5215652 17.4700983,21.5501267 C17.4901256,21.5786881 17.513315,21.6051339 17.5375586,21.6326375 C17.560748,21.6580254 17.5839375,21.6844712 17.6092351,21.7088013 C17.6345327,21.7320735 17.6608843,21.7521723 17.6882901,21.7733289 C17.718858,21.797659 17.7494259,21.8198735 17.782102,21.8399723 C17.7947508,21.8473771 17.8042374,21.8568976 17.8168862,21.8643024 C17.829535,21.8717072 17.8432378,21.8738228 17.8569407,21.8801698 C17.9128062,21.9087313 17.971834,21.9330614 18.0340239,21.9521023 C18.0561593,21.9584493 18.0772406,21.9669119 18.1004301,21.9722011 C18.1794851,21.9912421 18.2606482,22.0028782 18.3460276,22.0028782 C18.3470816,22.0028782 18.3470816,22.003936 18.3481357,22.003936 L18.3491898,22.003936 L18.3502438,22.003936 L18.8319522,22.0028782 C18.8340604,22.0028782 18.8361685,22.003936 18.8382766,22.003936 L18.8393307,22.003936 L37.6923643,21.9785481 C38.1909377,22.8459692 39.1227325,24.478202 39.9164446,25.8681915 C40.525695,26.9366005 41.0295388,27.8177735 41.4258678,28.5106525 L13.3708337,28.5106525 C13.3581849,28.5106525 13.3465901,28.5148839 13.3349954,28.5159417 C12.9534233,28.5222887 12.5855541,28.7243343 12.3916059,29.0871703 L7.74738883,37.7952324 L0.0874875202,37.7952324 C3.43098648,31.7931012 20.7492992,0.710862218 20.9727613,0.311002221 Z M30.6522541,1.10966439 L31.333181,2.23096491 C32.5295465,4.20487696 34.2192151,6.99120298 34.3984064,7.28104859 C34.455326,7.37307986 34.4816777,7.59628213 34.3615141,7.81102176 L27.702976,19.8078795 L20.207509,19.8174 L30.6522541,1.10966439 Z M43.4212157,13.8290205 L47.150503,20.4563297 L43.3484851,27.4856146 C42.8952365,26.6943573 42.332365,25.7084591 41.8042777,24.7828572 C40.7607519,22.953868 39.9997158,21.6220591 39.5707108,20.8773463 C40.3812879,19.3932099 42.5242051,15.4665424 43.4212157,13.8290205 Z"></path>
</svg>
